<svg id="Capa_1" enable-background="new 0 0 512 512" height="512" viewBox="0 0 512 512" width="512" xmlns="http://www.w3.org/2000/svg"><g><path d="m0 120v392l256-30v-332z" fill="#14cfff"/><path d="m512 120-286 30v332l286 30z" fill="#28abfa"/><path d="m512 497c0-20.032-7.801-38.867-21.967-53.033l-181-181c-14.166-14.166-33-21.967-53.033-21.967l-60 135.5 60 135.5h256z" fill="#14cfff"/><path d="m202.967 262.967-181 181c-14.166 14.166-21.967 33.001-21.967 53.033v15h256v-271c-20.033 0-38.867 7.801-53.033 21.967z" fill="#4fdbff"/><path d="m256 120-44.28 128.566h217.78l60.533-60.533c14.166-14.166 21.967-33.001 21.967-53.033v-15z" fill="#3857bc"/><path d="m256 120 44.28 128.566h-217.78l-60.533-60.533c-14.166-14.166-21.967-33.001-21.967-53.033v-15z" fill="#3a6fd8"/><path d="m256 0-100 195.5 100 195.5c20.033 0 38.867-7.801 53.033-21.967l120.467-120.467v-248.566z" fill="#ffd06a"/><path d="m256 391v-391h-173.5v248.566l120.467 120.467c14.166 14.166 33 21.967 53.033 21.967z" fill="#ffe7b5"/></g></svg>