<?xml version="1.0" encoding="iso-8859-1"?>
<!-- Generator: Adobe Illustrator 19.0.0, SVG Export Plug-In . SVG Version: 6.00 Build 0)  -->
<svg version="1.1" id="Capa_1" xmlns="http://www.w3.org/2000/svg" xmlns:xlink="http://www.w3.org/1999/xlink" x="0px" y="0px"
	 viewBox="0 0 512.003 512.003" style="enable-background:new 0 0 512.003 512.003;" xml:space="preserve">
<path style="fill:#FFF6E1;" d="M348.405,120.393c-5.588-5.588-3.568-16.621-6.642-24.036c-2.966-7.153-12.298-13.464-12.298-21.69
	s9.332-14.537,12.298-21.69c1.57-3.785,1.814-8.511,2.418-12.977H77.132v263.08l158.5,91.45l158.5-91.45V139.333
	c-8.226,0-14.537-9.332-21.69-12.298C365.027,123.96,353.993,125.981,348.405,120.393z"/>
<path style="fill:#FF3C63;" d="M458.798,74.667c0,8.226-9.332,14.537-12.298,21.69c-3.075,7.415-1.054,18.449-6.642,24.037
	c-5.588,5.588-16.622,3.567-24.036,6.642c-7.153,2.966-13.464,12.298-21.69,12.298s-14.537-9.332-21.69-12.298
	c-7.415-3.075-18.449-1.054-24.037-6.642c-5.588-5.588-3.567-16.622-6.642-24.036c-2.966-7.153-12.298-13.464-12.298-21.69
	s9.332-14.537,12.298-21.69c3.075-7.415,1.054-18.449,6.642-24.037s16.622-3.567,24.036-6.642C379.595,19.332,385.906,10,394.132,10
	s14.537,9.332,21.69,12.298c7.415,3.075,18.449,1.054,24.037,6.642c5.588,5.588,3.567,16.622,6.642,24.036
	C449.466,60.13,458.798,66.441,458.798,74.667z"/>
<path style="fill:#FFD974;" d="M348.405,120.393c-4.29-4.29-4.101-11.785-5.17-18.393H117.132v55h235v-34.157
	C350.734,122.243,349.47,121.457,348.405,120.393z"/>
<path d="M394.132,109.88c-0.65,0-1.311-0.061-1.96-0.19c-0.63-0.13-1.26-0.319-1.87-0.569c-0.6-0.25-1.18-0.561-1.72-0.92
	c-0.55-0.37-1.061-0.78-1.521-1.25c-1.859-1.86-2.93-4.431-2.93-7.07c0-0.65,0.06-1.311,0.189-1.95c0.131-0.64,0.33-1.27,0.58-1.87
	c0.25-0.6,0.551-1.189,0.91-1.729c0.37-0.55,0.79-1.061,1.25-1.521s0.971-0.88,1.521-1.24c0.54-0.359,1.12-0.67,1.72-0.92
	c0.61-0.25,1.24-0.439,1.87-0.569c1.29-0.261,2.62-0.261,3.91,0c0.64,0.13,1.27,0.319,1.87,0.569c0.609,0.25,1.189,0.561,1.729,0.92
	c0.55,0.36,1.061,0.78,1.521,1.24s0.88,0.971,1.239,1.521c0.36,0.54,0.67,1.13,0.92,1.729c0.25,0.601,0.45,1.23,0.57,1.87
	c0.13,0.64,0.2,1.3,0.2,1.95c0,2.63-1.07,5.21-2.93,7.07c-0.46,0.47-0.971,0.88-1.521,1.25c-0.54,0.359-1.12,0.67-1.729,0.92
	c-0.601,0.25-1.23,0.439-1.87,0.569C395.442,109.819,394.783,109.88,394.132,109.88z"/>
<path d="M394.131,78.248c-5.522,0-10-4.478-10-10V49.449c0-5.522,4.478-10,10-10s10,4.478,10,10v18.799
	C404.131,73.771,399.654,78.248,394.131,78.248z"/>
<polygon style="fill:#4B7C91;" points="394.132,289.593 394.132,303.08 235.632,394.53 77.132,303.08 77.132,289.593 
	53.207,289.593 53.207,502 417.057,502 417.057,289.593 "/>
<path d="M459.799,54.937c-1.691-2.109-3.44-4.292-4.062-5.791c-0.699-1.684-1.037-4.593-1.364-7.405
	c-0.729-6.266-1.638-14.063-7.444-19.871c-5.808-5.807-13.605-6.715-19.871-7.444c-2.813-0.327-5.721-0.666-7.406-1.364
	c-1.498-0.621-3.681-2.37-5.79-4.062c-5.002-4.011-11.226-9-19.731-9s-14.728,4.989-19.729,8.999
	c-2.11,1.691-4.292,3.44-5.791,4.062c-1.685,0.698-4.593,1.037-7.405,1.364c-6.266,0.729-14.063,1.638-19.871,7.444
	c-2.444,2.445-4.014,5.243-5.074,8.131H77.131c-5.522,0-10,4.478-10,10v239.593H53.207c-5.522,0-10,4.478-10,10V502
	c0,0.063,0.008,0.123,0.009,0.185c0.004,0.197,0.015,0.393,0.03,0.589c0.01,0.137,0.021,0.273,0.037,0.409
	c0.022,0.186,0.052,0.371,0.085,0.557c0.025,0.143,0.05,0.286,0.081,0.427c0.038,0.17,0.084,0.339,0.13,0.508
	c0.042,0.151,0.083,0.301,0.132,0.449c0.051,0.154,0.109,0.307,0.168,0.459c0.06,0.157,0.121,0.313,0.188,0.466
	c0.062,0.139,0.13,0.275,0.198,0.412c0.081,0.161,0.162,0.321,0.251,0.477c0.071,0.125,0.148,0.248,0.225,0.37
	c0.101,0.16,0.204,0.318,0.313,0.472c0.038,0.054,0.069,0.11,0.108,0.163c0.041,0.055,0.088,0.101,0.13,0.155
	c0.156,0.202,0.319,0.396,0.489,0.585c0.087,0.097,0.172,0.195,0.262,0.288c0.188,0.194,0.387,0.377,0.591,0.555
	c0.087,0.076,0.171,0.156,0.26,0.229c0.252,0.206,0.515,0.399,0.787,0.579c0.115,0.076,0.234,0.142,0.351,0.213
	c0.194,0.118,0.39,0.232,0.593,0.337c0.122,0.063,0.245,0.12,0.368,0.177c0.212,0.099,0.427,0.19,0.646,0.274
	c0.117,0.044,0.233,0.089,0.351,0.129c0.237,0.081,0.479,0.149,0.724,0.212c0.107,0.027,0.212,0.058,0.32,0.082
	c0.263,0.058,0.532,0.102,0.803,0.139c0.094,0.013,0.186,0.032,0.28,0.043c0.332,0.036,0.669,0.055,1.01,0.058
	c0.029,0,0.058,0.005,0.087,0.005c0.008,0,0.017-0.001,0.025-0.001h363.784c0.008,0,0.017,0.001,0.025,0.001
	c0.026,0,0.053-0.004,0.079-0.005c0.344-0.002,0.684-0.022,1.019-0.058c0.09-0.01,0.178-0.029,0.268-0.041
	c0.276-0.038,0.549-0.082,0.817-0.141c0.103-0.023,0.204-0.052,0.306-0.079c0.251-0.064,0.498-0.135,0.741-0.217
	c0.113-0.038,0.224-0.08,0.335-0.123c0.226-0.086,0.448-0.18,0.667-0.282c0.117-0.055,0.234-0.109,0.35-0.169
	c0.212-0.109,0.417-0.229,0.62-0.353c0.109-0.066,0.219-0.127,0.325-0.198c0.292-0.194,0.575-0.399,0.845-0.622
	c0.061-0.05,0.116-0.108,0.175-0.159c0.218-0.189,0.43-0.385,0.631-0.592c0.083-0.086,0.162-0.177,0.243-0.267
	c0.178-0.197,0.348-0.399,0.51-0.61c0.039-0.05,0.083-0.093,0.12-0.144c0.036-0.049,0.065-0.102,0.1-0.151
	c0.116-0.163,0.226-0.33,0.332-0.5c0.071-0.113,0.141-0.226,0.207-0.341c0.095-0.167,0.183-0.338,0.269-0.511
	c0.062-0.126,0.125-0.251,0.182-0.378c0.073-0.165,0.139-0.334,0.204-0.504c0.053-0.14,0.107-0.279,0.154-0.421
	c0.053-0.161,0.098-0.324,0.143-0.488c0.043-0.156,0.085-0.311,0.12-0.468c0.034-0.154,0.061-0.31,0.088-0.467
	c0.03-0.172,0.058-0.343,0.079-0.515c0.018-0.148,0.03-0.298,0.041-0.448c0.014-0.183,0.024-0.365,0.028-0.548
	c0.001-0.068,0.01-0.134,0.01-0.203V289.593c0-5.522-4.478-10-10-10H404.13V146.938c3.75-1.812,6.932-4.361,9.73-6.604
	c2.11-1.691,4.292-3.44,5.789-4.062c1.684-0.698,4.593-1.036,7.405-1.364c6.267-0.729,14.065-1.636,19.873-7.444
	c5.807-5.808,6.715-13.605,7.444-19.871c0.327-2.813,0.665-5.721,1.364-7.406c0.621-1.498,2.37-3.68,4.062-5.79
	c4.01-5.001,8.999-11.225,8.999-19.729S463.809,59.938,459.799,54.937z M342.131,128.218V147h-215v-35h207.326
	c0.218,1.41,0.493,2.852,0.861,4.294c0.021,0.082,0.042,0.163,0.064,0.245c0.086,0.327,0.177,0.654,0.274,0.981
	c0.027,0.091,0.053,0.182,0.081,0.273c0.244,0.797,0.521,1.591,0.84,2.376c0.044,0.108,0.091,0.215,0.137,0.323
	c0.119,0.282,0.243,0.563,0.374,0.842c0.058,0.125,0.117,0.25,0.178,0.374c0.14,0.287,0.288,0.573,0.441,0.856
	c0.052,0.096,0.101,0.193,0.154,0.289c0.207,0.369,0.425,0.735,0.656,1.097c0.056,0.088,0.118,0.174,0.176,0.261
	c0.182,0.277,0.371,0.551,0.569,0.822c0.088,0.121,0.18,0.241,0.271,0.361c0.189,0.247,0.385,0.492,0.589,0.734
	c0.092,0.109,0.181,0.219,0.276,0.328c0.298,0.341,0.607,0.678,0.935,1.007l0,0l0,0c0.015,0.015,0.031,0.028,0.046,0.042
	C341.623,127.749,341.873,127.987,342.131,128.218z M87.131,50h244.96c-0.049,0.086-0.097,0.172-0.151,0.26
	c-0.04,0.066-0.078,0.131-0.121,0.199c-0.105,0.168-0.219,0.341-0.337,0.516c-0.029,0.043-0.054,0.084-0.084,0.127
	c-0.149,0.218-0.307,0.441-0.472,0.668c-0.057,0.078-0.117,0.159-0.176,0.238c-0.114,0.154-0.228,0.308-0.347,0.464
	c-0.076,0.1-0.153,0.201-0.23,0.301c-0.107,0.139-0.215,0.279-0.325,0.419c-0.084,0.108-0.169,0.216-0.254,0.325
	c-0.113,0.144-0.227,0.288-0.342,0.432c-0.08,0.1-0.159,0.2-0.239,0.301c-0.183,0.229-0.366,0.458-0.549,0.686
	c-4.01,5.002-8.999,11.226-8.999,19.73c0,7.2,3.575,12.761,7.105,17.333H117.131c-5.522,0-10,4.478-10,10v55c0,5.522,4.478,10,10,10
	h235c5.522,0,10-4.478,10-10v-21.983c0.347,0.041,0.692,0.083,1.035,0.126c0.049,0.006,0.098,0.012,0.147,0.018
	c0.003,0,0.006,0.001,0.009,0.001c2.08,0.266,4.028,0.587,5.29,1.11c1.497,0.621,3.679,2.37,5.789,4.062
	c0.47,0.377,0.955,0.763,1.448,1.153c0.193,0.153,0.386,0.305,0.583,0.458c0.147,0.115,0.297,0.229,0.446,0.344
	c0.216,0.166,0.433,0.332,0.653,0.498c0.153,0.115,0.307,0.229,0.462,0.344c0.223,0.165,0.447,0.328,0.674,0.491
	c0.158,0.114,0.318,0.226,0.478,0.339c0.231,0.162,0.464,0.321,0.7,0.48c0.163,0.11,0.326,0.219,0.492,0.328
	c0.244,0.16,0.493,0.316,0.742,0.472c0.162,0.101,0.322,0.202,0.486,0.301c0.271,0.163,0.548,0.321,0.825,0.477
	c0.149,0.084,0.296,0.171,0.448,0.254c0.347,0.189,0.7,0.369,1.057,0.545c0.08,0.04,0.156,0.083,0.237,0.122v150.365l0,0
	l-148.5,85.681l-148.5-85.681l0,0V50H87.131z M230.633,403.192c1.547,0.892,3.272,1.338,4.998,1.338
	c1.726,0,3.451-0.446,4.998-1.338l14.523-8.379L386.693,492H83.57l131.98-97.51L230.633,403.192z M67.131,299.593v3.487
	c0,3.573,1.907,6.876,5.002,8.662l124.518,71.844L63.207,482.178V299.593H67.131z M407.057,299.593v182.586l-133.006-98.27
	l125.079-72.167c3.095-1.786,5.002-5.089,5.002-8.662v-3.487L407.057,299.593L407.057,299.593z M444.195,81.887
	c-2.447,3.053-5.221,6.513-6.932,10.639c-1.768,4.262-2.293,8.774-2.756,12.755c-0.291,2.501-0.833,7.154-1.721,8.042
	s-5.542,1.43-8.042,1.721c-3.98,0.463-8.492,0.988-12.754,2.755c-4.127,1.711-7.586,4.484-10.639,6.932
	c-2.287,1.833-5.742,4.604-7.221,4.604c-1.478,0-4.934-2.771-7.22-4.604c-3.053-2.447-6.513-5.221-10.639-6.932
	c-4.262-1.768-8.774-2.293-12.755-2.756c-2.046-0.238-5.53-0.644-7.217-1.27c-0.076-0.035-0.144-0.082-0.222-0.115
	c-0.272-0.117-0.444-0.218-0.536-0.282c-0.015-0.013-0.036-0.025-0.049-0.038c-0.006-0.005-0.016-0.012-0.019-0.015
	c-0.022-0.022-0.044-0.057-0.066-0.084c-0.033-0.04-0.066-0.076-0.098-0.127c-0.027-0.043-0.054-0.1-0.08-0.15
	c-0.024-0.046-0.05-0.086-0.073-0.138c-0.702-1.521-1.149-5.355-1.403-7.542c-0.463-3.979-0.988-8.491-2.755-12.753
	c-1.711-4.127-4.484-7.587-6.932-10.64c-1.833-2.286-4.604-5.742-4.604-7.22s2.771-4.934,4.604-7.221
	c2.447-3.053,5.221-6.513,6.932-10.64c1.768-4.263,2.294-8.775,2.758-12.757c0.096-0.815,0.192-1.628,0.298-2.434
	c0.316-2.345,0.777-4.961,1.42-5.604c0.888-0.888,5.541-1.43,8.041-1.721c3.98-0.463,8.493-0.988,12.754-2.756
	c4.127-1.711,7.587-4.484,10.64-6.932c2.286-1.833,5.742-4.604,7.22-4.604s4.934,2.771,7.221,4.604
	c3.053,2.447,6.513,5.221,10.639,6.932c4.262,1.768,8.774,2.293,12.755,2.756c2.5,0.291,7.153,0.833,8.041,1.721
	s1.43,5.541,1.721,8.041c0.463,3.981,0.988,8.493,2.756,12.754c1.711,4.127,4.484,7.587,6.932,10.64
	c1.833,2.287,4.604,5.743,4.604,7.221S446.028,79.601,444.195,81.887z"/>
<path d="M203.131,260h-86c-5.522,0-10-4.478-10-10s4.478-10,10-10h86c5.522,0,10,4.478,10,10S208.654,260,203.131,260z"/>
<path d="M203.131,307h-86c-5.522,0-10-4.478-10-10s4.478-10,10-10h86c5.522,0,10,4.478,10,10S208.654,307,203.131,307z"/>
<path d="M355.131,260h-86c-5.522,0-10-4.478-10-10s4.478-10,10-10h86c5.522,0,10,4.478,10,10S360.654,260,355.131,260z"/>
<path d="M355.131,307h-86c-5.522,0-10-4.478-10-10s4.478-10,10-10h86c5.522,0,10,4.478,10,10S360.654,307,355.131,307z"/>
<path d="M352.132,214c-0.65,0-1.311-0.07-1.96-0.2c-0.63-0.12-1.26-0.32-1.87-0.57c-0.6-0.25-1.18-0.56-1.72-0.92
	c-0.55-0.359-1.061-0.779-1.521-1.24c-0.46-0.46-0.88-0.97-1.25-1.52c-0.359-0.54-0.67-1.12-0.92-1.73
	c-0.25-0.6-0.439-1.229-0.57-1.869c-0.13-0.641-0.189-1.301-0.189-1.95c0-0.65,0.06-1.311,0.189-1.96
	c0.131-0.63,0.32-1.26,0.57-1.87c0.25-0.601,0.561-1.18,0.92-1.72c0.37-0.551,0.79-1.061,1.25-1.521s0.971-0.88,1.521-1.24
	c0.54-0.37,1.12-0.67,1.72-0.92c0.61-0.25,1.24-0.45,1.87-0.569c1.29-0.261,2.62-0.261,3.91,0c0.64,0.119,1.27,0.319,1.87,0.569
	c0.609,0.25,1.189,0.55,1.729,0.92c0.55,0.36,1.061,0.78,1.521,1.24s0.88,0.97,1.239,1.521c0.36,0.54,0.67,1.119,0.92,1.72
	c0.25,0.61,0.44,1.24,0.57,1.87c0.13,0.649,0.2,1.31,0.2,1.96c0,0.649-0.07,1.31-0.2,1.95s-0.32,1.27-0.57,1.869
	c-0.25,0.61-0.56,1.19-0.92,1.73c-0.359,0.55-0.779,1.06-1.239,1.52c-0.46,0.461-0.971,0.881-1.521,1.24
	c-0.54,0.36-1.12,0.67-1.729,0.92c-0.601,0.25-1.23,0.45-1.87,0.57C353.442,213.93,352.783,214,352.132,214z"/>
<path d="M317.538,213.9h-200c-5.522,0-10-4.478-10-10s4.478-10,10-10h200c5.522,0,10,4.478,10,10S323.06,213.9,317.538,213.9z"/>
<g>
</g>
<g>
</g>
<g>
</g>
<g>
</g>
<g>
</g>
<g>
</g>
<g>
</g>
<g>
</g>
<g>
</g>
<g>
</g>
<g>
</g>
<g>
</g>
<g>
</g>
<g>
</g>
<g>
</g>
</svg>
